<?xml version="1.0" encoding="UTF-8"?>
<svg xmlns="http://www.w3.org/2000/svg" xmlns:xlink="http://www.w3.org/1999/xlink" width="240pt" height="239.999995pt" viewBox="0 0 240 239.999995" version="1.2">
<defs>
<clipPath id="clip1">
  <path d="M 147 122 L 237.398438 122 L 237.398438 183 L 147 183 Z M 147 122 "/>
</clipPath>
<clipPath id="clip2">
  <path d="M 2.648438 122 L 93 122 L 93 183 L 2.648438 183 Z M 2.648438 122 "/>
</clipPath>
<clipPath id="clip3">
  <path d="M 52 130 L 188 130 L 188 201.628906 L 52 201.628906 Z M 52 130 "/>
</clipPath>
<clipPath id="clip4">
  <path d="M 77 37.707031 L 163 37.707031 L 163 123 L 77 123 Z M 77 37.707031 "/>
</clipPath>
</defs>
<g id="surface1">
<path style=" stroke:none;fill-rule:nonzero;fill:rgb(100%,100%,100%);fill-opacity:1;" d="M 186.972656 181.171875 L 235.839844 181.171875 C 230.015625 136.386719 207.535156 124.234375 180.675781 124.234375 C 168.949219 124.234375 158.058594 126.554688 149.019531 132.886719 C 167.910156 140.332031 180.472656 156.324219 186.972656 181.171875 "/>
<g clip-path="url(#clip1)" clip-rule="nonzero">
<path style=" stroke:none;fill-rule:nonzero;fill:rgb(13.729858%,12.159729%,12.548828%);fill-opacity:1;" d="M 186.972656 181.171875 L 186.972656 182.734375 L 235.839844 182.734375 C 236.292969 182.734375 236.714844 182.542969 237.015625 182.203125 C 237.316406 181.863281 237.453125 181.417969 237.394531 180.972656 C 235.921875 169.65625 233.394531 160.351562 229.972656 152.742188 C 224.84375 141.328125 217.65625 133.730469 209.152344 129.070312 C 200.65625 124.40625 190.921875 122.671875 180.675781 122.671875 C 174.710938 122.671875 168.921875 123.257812 163.445312 124.671875 C 157.96875 126.085938 152.804688 128.324219 148.117188 131.605469 C 147.644531 131.9375 147.394531 132.5 147.460938 133.070312 C 147.527344 133.640625 147.90625 134.128906 148.441406 134.339844 C 157.640625 137.96875 165.253906 143.640625 171.40625 151.46875 C 177.558594 159.292969 182.242188 169.300781 185.453125 181.5625 C 185.636719 182.253906 186.257812 182.734375 186.972656 182.734375 L 186.972656 181.171875 L 188.496094 180.777344 C 185.199219 168.195312 180.355469 157.78125 173.882812 149.539062 C 167.40625 141.296875 159.292969 135.25 149.597656 131.433594 L 149.019531 132.886719 L 149.925781 134.164062 C 154.273438 131.117188 159.070312 129.03125 164.234375 127.699219 C 169.394531 126.367188 174.914062 125.796875 180.675781 125.796875 C 187.269531 125.796875 193.554688 126.546875 199.339844 128.328125 C 208.023438 131.007812 215.59375 135.964844 221.625 144.382812 C 227.652344 152.800781 232.117188 164.75 234.28125 181.371094 L 235.839844 181.171875 L 235.839844 179.605469 L 186.972656 179.605469 L 186.972656 181.171875 L 188.496094 180.777344 L 186.972656 181.171875 "/>
</g>
<path style=" stroke:none;fill-rule:nonzero;fill:rgb(100%,100%,100%);fill-opacity:1;" d="M 180.675781 46.546875 C 172 46.546875 164.105469 49.75 158.039062 55.003906 C 163.003906 62.242188 165.910156 70.984375 165.910156 80.390625 C 165.910156 90.082031 162.804688 99.042969 157.5625 106.40625 C 163.683594 111.917969 171.773438 115.292969 180.675781 115.292969 C 199.738281 115.292969 215.203125 99.902344 215.203125 80.925781 C 215.203125 61.9375 199.738281 46.546875 180.675781 46.546875 "/>
<path style=" stroke:none;fill-rule:nonzero;fill:rgb(13.729858%,12.159729%,12.548828%);fill-opacity:1;" d="M 180.675781 46.546875 L 180.675781 44.980469 C 171.609375 44.980469 163.34375 48.335938 157.011719 53.824219 C 156.410156 54.34375 156.296875 55.226562 156.742188 55.882812 C 161.539062 62.875 164.339844 71.304688 164.339844 80.390625 C 164.339844 89.746094 161.34375 98.386719 156.28125 105.503906 C 155.820312 106.152344 155.917969 107.035156 156.511719 107.566406 C 162.902344 113.320312 171.371094 116.859375 180.675781 116.859375 C 200.605469 116.855469 216.773438 100.765625 216.773438 80.925781 C 216.773438 61.074219 200.605469 44.984375 180.675781 44.980469 L 180.675781 48.109375 C 189.777344 48.109375 198.007812 51.78125 203.976562 57.71875 C 209.945312 63.664062 213.632812 71.855469 213.632812 80.925781 C 213.632812 89.984375 209.945312 98.175781 203.976562 104.121094 C 198.007812 110.058594 189.777344 113.726562 180.675781 113.730469 C 172.179688 113.726562 164.46875 110.507812 158.613281 105.246094 L 157.5625 106.40625 L 158.84375 107.3125 C 164.261719 99.699219 167.480469 90.417969 167.480469 80.390625 C 167.480469 70.660156 164.472656 61.609375 159.339844 54.121094 L 158.039062 55.003906 L 159.070312 56.183594 C 164.867188 51.164062 172.394531 48.109375 180.675781 48.109375 L 180.675781 46.546875 "/>
<path style=" stroke:none;fill-rule:nonzero;fill:rgb(100%,100%,100%);fill-opacity:1;" d="M 53.117188 181.171875 L 4.253906 181.171875 C 10.078125 136.386719 32.554688 124.234375 59.417969 124.234375 C 71.140625 124.234375 82.035156 126.554688 91.070312 132.886719 C 72.179688 140.332031 59.621094 156.324219 53.117188 181.171875 "/>
<g clip-path="url(#clip2)" clip-rule="nonzero">
<path style=" stroke:none;fill-rule:nonzero;fill:rgb(13.729858%,12.159729%,12.548828%);fill-opacity:1;" d="M 53.117188 181.171875 L 53.117188 179.605469 L 4.253906 179.605469 L 4.253906 181.171875 L 5.8125 181.371094 C 7.253906 170.292969 9.71875 161.28125 12.984375 154.019531 C 17.898438 143.125 24.570312 136.148438 32.453125 131.8125 C 40.339844 127.480469 49.515625 125.796875 59.417969 125.796875 C 65.175781 125.796875 70.699219 126.367188 75.859375 127.699219 C 81.019531 129.03125 85.820312 131.117188 90.167969 134.164062 L 91.070312 132.886719 L 90.496094 131.433594 C 80.796875 135.25 72.683594 141.296875 66.210938 149.539062 C 59.734375 157.78125 54.890625 168.195312 51.597656 180.777344 L 53.117188 181.171875 L 53.117188 179.605469 L 53.117188 181.171875 L 54.636719 181.5625 C 57.847656 169.300781 62.535156 159.292969 68.683594 151.46875 C 74.839844 143.640625 82.453125 137.96875 91.652344 134.339844 C 92.183594 134.128906 92.5625 133.640625 92.632812 133.070312 C 92.699219 132.5 92.445312 131.9375 91.976562 131.605469 C 87.285156 128.324219 82.121094 126.085938 76.648438 124.671875 C 71.167969 123.257812 65.382812 122.671875 59.417969 122.671875 C 52.582031 122.671875 45.984375 123.441406 39.820312 125.339844 C 30.574219 128.175781 22.316406 133.589844 15.90625 142.566406 C 9.488281 151.539062 4.902344 164.003906 2.699219 180.972656 C 2.640625 181.417969 2.773438 181.863281 3.074219 182.203125 C 3.375 182.542969 3.800781 182.734375 4.253906 182.734375 L 53.117188 182.734375 C 53.832031 182.734375 54.453125 182.253906 54.636719 181.5625 L 53.117188 181.171875 "/>
</g>
<path style=" stroke:none;fill-rule:nonzero;fill:rgb(100%,100%,100%);fill-opacity:1;" d="M 59.417969 46.546875 C 68.089844 46.546875 75.984375 49.75 82.050781 55.003906 C 77.085938 62.242188 74.179688 70.984375 74.179688 80.390625 C 74.179688 90.082031 77.289062 99.042969 82.527344 106.40625 C 76.40625 111.917969 68.316406 115.292969 59.417969 115.292969 C 40.355469 115.292969 24.886719 99.902344 24.886719 80.925781 C 24.886719 61.9375 40.355469 46.546875 59.417969 46.546875 "/>
<path style=" stroke:none;fill-rule:nonzero;fill:rgb(13.729858%,12.159729%,12.548828%);fill-opacity:1;" d="M 59.417969 46.546875 L 59.417969 48.109375 C 67.699219 48.109375 75.222656 51.164062 81.019531 56.183594 L 82.050781 55.003906 L 80.753906 54.121094 C 75.617188 61.609375 72.609375 70.660156 72.609375 80.390625 C 72.609375 90.417969 75.828125 99.699219 81.246094 107.3125 L 82.527344 106.40625 L 81.476562 105.246094 C 75.625 110.507812 67.914062 113.726562 59.417969 113.730469 C 50.3125 113.726562 42.082031 110.058594 36.113281 104.121094 C 30.148438 98.175781 26.457031 89.984375 26.457031 80.925781 C 26.457031 71.855469 30.148438 63.664062 36.113281 57.71875 C 42.082031 51.78125 50.3125 48.109375 59.417969 48.109375 L 59.417969 44.980469 C 39.484375 44.984375 23.320312 61.074219 23.316406 80.925781 C 23.320312 100.765625 39.484375 116.855469 59.417969 116.859375 C 68.71875 116.859375 77.1875 113.320312 83.582031 107.566406 C 84.171875 107.035156 84.269531 106.152344 83.8125 105.503906 C 78.75 98.386719 75.75 89.746094 75.75 80.390625 C 75.75 71.304688 78.554688 62.875 83.347656 55.882812 C 83.796875 55.230469 83.683594 54.34375 83.082031 53.824219 C 76.75 48.335938 68.484375 44.980469 59.417969 44.980469 L 59.417969 46.546875 "/>
<path style=" stroke:none;fill-rule:nonzero;fill:rgb(100%,100%,100%);fill-opacity:1;" d="M 185.886719 200.050781 C 178.941406 146.59375 152.105469 132.09375 120.046875 132.09375 C 87.980469 132.09375 61.152344 146.59375 54.203125 200.050781 L 185.886719 200.050781 "/>
<g clip-path="url(#clip3)" clip-rule="nonzero">
<path style=" stroke:none;fill-rule:nonzero;fill:rgb(13.729858%,12.159729%,12.548828%);fill-opacity:1;" d="M 185.886719 200.050781 L 187.445312 199.847656 C 185.695312 186.367188 182.679688 175.289062 178.609375 166.238281 C 172.511719 152.667969 163.980469 143.65625 153.894531 138.128906 C 143.808594 132.59375 132.238281 130.527344 120.046875 130.527344 C 111.910156 130.527344 104.066406 131.445312 96.742188 133.699219 C 85.761719 137.066406 75.96875 143.488281 68.355469 154.148438 C 60.734375 164.804688 55.273438 179.628906 52.644531 199.847656 C 52.585938 200.296875 52.722656 200.742188 53.023438 201.082031 C 53.324219 201.421875 53.746094 201.613281 54.203125 201.613281 L 185.886719 201.613281 C 186.34375 201.613281 186.765625 201.421875 187.066406 201.082031 C 187.367188 200.742188 187.503906 200.296875 187.445312 199.847656 L 185.886719 200.050781 L 185.886719 198.488281 L 54.203125 198.488281 L 54.203125 200.050781 L 55.757812 200.25 C 57.484375 187.003906 60.429688 176.222656 64.34375 167.519531 C 70.226562 154.460938 78.238281 146.074219 87.710938 140.867188 C 97.183594 135.664062 108.195312 133.65625 120.046875 133.65625 C 127.941406 133.65625 135.472656 134.550781 142.417969 136.683594 C 152.835938 139.902344 161.9375 145.859375 169.175781 155.960938 C 176.40625 166.066406 181.75 180.375 184.332031 200.25 L 185.886719 200.050781 L 185.886719 198.488281 L 185.886719 200.050781 "/>
</g>
<path style=" stroke:none;fill-rule:nonzero;fill:rgb(100%,100%,100%);fill-opacity:1;" d="M 161.253906 80.390625 C 161.253906 103.050781 142.800781 121.421875 120.046875 121.421875 C 97.28125 121.421875 78.835938 103.050781 78.835938 80.390625 C 78.835938 57.730469 97.28125 39.363281 120.046875 39.363281 C 142.800781 39.363281 161.253906 57.730469 161.253906 80.390625 "/>
<g clip-path="url(#clip4)" clip-rule="nonzero">
<path style=" stroke:none;fill-rule:nonzero;fill:rgb(13.729858%,12.159729%,12.548828%);fill-opacity:1;" d="M 161.253906 80.390625 L 159.683594 80.390625 C 159.683594 91.292969 155.25 101.152344 148.074219 108.296875 C 140.894531 115.441406 130.996094 119.859375 120.046875 119.859375 C 109.09375 119.859375 99.195312 115.441406 92.015625 108.296875 C 84.839844 101.152344 80.40625 91.292969 80.40625 80.390625 C 80.40625 69.488281 84.839844 59.628906 92.015625 52.484375 C 99.195312 45.339844 109.09375 40.929688 120.046875 40.925781 C 130.996094 40.925781 140.894531 45.339844 148.074219 52.484375 C 155.25 59.632812 159.683594 69.488281 159.683594 80.390625 L 162.824219 80.390625 C 162.824219 56.863281 143.667969 37.800781 120.046875 37.796875 C 96.414062 37.800781 77.265625 56.863281 77.265625 80.390625 C 77.265625 103.914062 96.414062 122.984375 120.046875 122.984375 C 143.667969 122.984375 162.824219 103.914062 162.824219 80.390625 L 161.253906 80.390625 "/>
</g>
</g>
</svg>
